<?xml version="1.0" encoding="utf-8"?>
<!-- Generator: Adobe Illustrator 24.0.3, SVG Export Plug-In . SVG Version: 6.00 Build 0)  -->
<svg version="1.1" id="레이어_1" xmlns="http://www.w3.org/2000/svg" xmlns:xlink="http://www.w3.org/1999/xlink" x="0px"
	 y="0px" viewBox="0 0 24 23" style="enable-background:new 0 0 24 23;" xml:space="preserve">
<style type="text/css">
	.st0{fill:none;stroke:#E4E8F0;}
	.st1{opacity:0.6951;}
	.st2{filter:url(#Adobe_OpacityMaskFilter);}
	.st3{fill-rule:evenodd;clip-rule:evenodd;fill:#FFFFFF;}
	.st4{mask:url(#mask-2_1_);}
	.st5{fill-rule:evenodd;clip-rule:evenodd;fill-opacity:0.54;}
</style>
<title>search</title>
<desc>Created with Sketch.</desc>
<g id="Page-1">
	<g id="문자-보내기" transform="translate(-535.000000, -106.000000)">
		<g id="search" transform="translate(157.000000, 98.000000)">
			<rect id="Rectangle" x="0.5" y="0.5" class="st0" width="409" height="39"/>
			<g id="Icon-_x2F_-Search-_x2F_-Filled" transform="translate(378.000000, 8.000000)" class="st1">
				<g id="Mask" transform="translate(11.745000, 11.745500) scale(1, -1) translate(-11.745000, -11.745500) ">
				</g>
				<defs>
					<filter id="Adobe_OpacityMaskFilter" filterUnits="userSpaceOnUse" x="0" y="0" width="24" height="24">
						<feColorMatrix  type="matrix" values="1 0 0 0 0  0 1 0 0 0  0 0 1 0 0  0 0 0 1 0"/>
					</filter>
				</defs>
				<mask maskUnits="userSpaceOnUse" x="0" y="0" width="24" height="24" id="mask-2_1_">
					<g class="st2">
						<path id="path-1_1_" class="st3" d="M15.5,14.5l5,5L19,21l-5-5v-0.8l-0.3-0.3c-1.1,1-2.6,1.6-4.2,1.6C5.9,16.5,3,13.6,3,10
							s2.9-6.5,6.5-6.5S16,6.4,16,10c0,1.6-0.6,3.1-1.6,4.2l0.3,0.3H15.5L15.5,14.5z M9.5,14.5c2.5,0,4.5-2,4.5-4.5
							c0-2.5-2-4.5-4.5-4.5C7,5.5,5,7.5,5,10C5,12.5,7,14.5,9.5,14.5L9.5,14.5z"/>
					</g>
				</mask>
				<g id="_x2731_-_x2F_-Color-_x2F_-Icons-_x2F_-Selected-_x2F_-On-Surface-_x2F_-Inactive" class="st4">
					<rect id="Rectangle_1_" y="0" class="st5" width="24" height="24"/>
				</g>
			</g>
		</g>
	</g>
</g>
</svg>
